<svg height="512pt" viewBox="-64 0 512 512.001" width="512pt" xmlns="http://www.w3.org/2000/svg"><path d="m377.183594 192.378906c0 102.066406-184.804688 312.046875-184.804688 312.046875s-184.804687-209.980469-184.804687-312.046875 82.742187-184.804687 184.804687-184.804687c102.066406 0 184.804688 82.738281 184.804688 184.804687zm0 0" fill="#ff5f5f"/><path d="m192.378906 7.574219c-6.824218 0-13.5625.382812-20.195312 1.101562 92.558594 10.0625 164.605468 88.464844 164.605468 183.703125 0 107.519532-144.410156 312.046875-144.410156 312.046875s184.804688-209.980469 184.804688-312.046875-82.738282-184.804687-184.804688-184.804687zm0 0" fill="#ff3939"/><path d="m260.253906 293.363281h-135.75c-18.285156 0-33.109375-14.824219-33.109375-33.109375v-135.75c0-18.285156 14.824219-33.109375 33.109375-33.109375h135.75c18.289063 0 33.113282 14.824219 33.113282 33.109375v135.75c0 18.285156-14.824219 33.109375-33.113282 33.109375zm0 0" fill="#8fe7ff"/><path d="m274.324219 94.527344c1.597656 3.882812 2.484375 8.132812 2.484375 12.59375v135.75c0 18.285156-14.820313 33.109375-33.109375 33.109375h-135.75c-5.03125 0-9.800781-1.125-14.070313-3.132813 4.957032 12.039063 16.796875 20.515625 30.625 20.515625h135.75c18.289063 0 33.113282-14.824219 33.113282-33.109375v-135.75c0-13.253906-7.792969-24.683594-19.042969-29.976562zm0 0" fill="#53daf9"/><path d="m293.367188 227.144531-57.945313-65.394531-57.941406 65.394531-34.765625-32.28125-51.320313 48.835938v16.554687c0 18.285156 14.824219 33.109375 33.109375 33.109375h135.75c18.289063 0 33.113282-14.824219 33.113282-33.109375zm0 0" fill="#5aff6a"/><path d="m276.808594 242.871094c0 18.285156-14.820313 33.109375-33.109375 33.109375h-135.75c-5.03125 0-9.800781-1.125-14.070313-3.132813 4.957032 12.039063 16.796875 20.515625 30.625 20.515625h135.75c18.289063 0 33.113282-14.824219 33.113282-33.109375v-33.109375l-16.558594-18.683593zm0 0" fill="#35ef43"/><path d="m194.398438 139.734375c0 11.152344-9.042969 20.195313-20.195313 20.195313-11.15625 0-20.199219-9.042969-20.199219-20.195313 0-11.15625 9.042969-20.199219 20.199219-20.199219 11.152344 0 20.195313 9.042969 20.195313 20.199219zm0 0" fill="#fff148"/><path d="m213.082031 91.394531c0-4.183593-3.390625-7.574219-7.574219-7.574219h-81.003906c-22.433594 0-40.683594 18.25-40.683594 40.683594v135.75c0 22.433594 18.25 40.683594 40.683594 40.683594h135.75c22.433594 0 40.683594-18.25 40.683594-40.683594v-135.75c0-22.433594-18.25-40.683594-40.683594-40.683594h-19.039062c-4.179688 0-7.574219 3.390626-7.574219 7.574219 0 4.179688 3.394531 7.574219 7.574219 7.574219h19.039062c14.082032 0 25.535156 11.453125 25.535156 25.535156v82.671875l-44.699218-50.445312c-1.4375-1.625-3.5-2.550781-5.667969-2.550781s-4.230469.925781-5.667969 2.550781l-52.804687 59.589843-29.082031-27.007812c-2.933594-2.722656-7.476563-2.695312-10.375.0625l-38.527344 36.660156v-101.53125c0-14.082031 11.457031-25.535156 25.535156-25.535156h81.003906c4.1875-.003906 7.578125-3.394531 7.578125-7.574219zm-70.304687 113.863281 29.546875 27.4375c1.496093 1.386719 3.476562 2.105469 5.523437 2.015626 2.035156-.101563 3.949219-1.019532 5.300782-2.542969l52.273437-58.996094 50.371094 56.84375v30.238281c0 14.082032-11.457031 25.535156-25.539063 25.535156h-135.75c-14.082031 0-25.535156-11.453124-25.535156-25.535156v-13.308594zm0 0"/><path d="m146.429688 139.734375c0 15.3125 12.460937 27.769531 27.773437 27.769531 15.308594 0 27.769531-12.457031 27.769531-27.769531s-12.460937-27.769531-27.769531-27.769531c-15.3125 0-27.773437 12.457031-27.773437 27.769531zm40.394531 0c0 6.960937-5.660157 12.621094-12.621094 12.621094s-12.625-5.660157-12.625-12.621094 5.664063-12.625 12.625-12.625 12.621094 5.664063 12.621094 12.625zm0 0"/><path d="m192.378906 0c-106.078125 0-192.378906 86.300781-192.378906 192.378906 0 34.199219 19.410156 82.816406 57.695312 144.503906 2.203126 3.554688 6.875 4.644532 10.425782 2.4375 3.554687-2.203124 4.648437-6.875 2.441406-10.425781-36.769531-59.25-55.414062-105.179687-55.414062-136.515625 0-97.726562 79.503906-177.230468 177.230468-177.230468 97.726563 0 177.230469 79.503906 177.230469 177.230468 0 88.128906-146.3125 264.226563-177.234375 300.453125-15.8125-18.503906-61.808594-73.546875-102.773438-134.515625-2.332031-3.472656-7.039062-4.394531-10.511718-2.0625-3.46875 2.332032-4.394532 7.039063-2.0625 10.511719 50.714844 75.476563 109.082031 142 109.667968 142.664063 1.4375 1.636718 3.507813 2.570312 5.683594 2.570312 2.175782 0 4.25-.933594 5.6875-2.570312.464844-.527344 46.996094-53.542969 92.894532-118.375 62.238281-87.902344 93.796874-154.75 93.796874-198.675782 0-106.078125-86.300781-192.378906-192.378906-192.378906zm0 0"/></svg>